<?xml version="1.0" encoding="UTF-8"?>
<svg id="Layer_2" xmlns="http://www.w3.org/2000/svg" viewBox="0 0 1622 358.85"><defs><style>.cls-1,.cls-2{fill:#fff;fill-rule:evenodd;stroke-width:0px;}.cls-2{opacity:.5;}</style></defs><g id="Layer_1-2"><path class="cls-2" d="M889.97,179.43c0,99.09-80.34,179.43-179.43,179.43-56.52,0-106.94-26.15-139.79-67l19.25-11.59c28.82,34.44,72.11,56.34,120.54,56.34,86.82,0,157.2-70.38,157.2-157.18,0-18.83-3.32-36.87-9.4-53.59l19.49-11.33c7.84,20.13,12.13,42.02,12.13,64.92Z"/><path class="cls-1" d="M875.14,107.91l-19.38,11.23c-23.64-56.91-79.74-96.91-145.21-96.91-86.81,0-157.18,70.39-157.18,157.2,0,35.82,11.99,68.85,32.19,95.29l-19.15,11.51c-22.16-29.84-35.26-66.79-35.26-106.8C531.14,80.34,611.46,0,710.55,0c73.68,0,136.95,44.4,164.59,107.91Z"/><path class="cls-1" d="M655.62,234.37l-34.84,20.07c-1.69.97-3.8-.25-3.8-2.19v-40.17l38.64,22.29Z"/><path class="cls-2" d="M765.49,234.37l34.84,20.07c1.69.97,3.8-.25,3.8-2.19v-40.17s-38.64,22.29-38.64,22.29Z"/><polygon class="cls-1" points="659.34 181.45 659.34 228.37 616.98 203.9 616.98 156.99 659.34 181.45"/><path class="cls-1" d="M659.34,124.35v48.94l-42.36-24.46v-44.54c0-1.95,2.11-3.17,3.8-2.19l38.56,22.25Z"/><polygon class="cls-1" points="707.01 151.89 707.01 200.85 698.25 195.81 666.4 177.48 666.4 128.46 707.01 151.89"/><polygon class="cls-1" points="754.69 128.46 754.69 177.33 714.09 200.7 714.09 151.91 754.69 128.46"/><path class="cls-1" d="M804.13,104.29v44.57l-42.37,24.4v-48.89l38.58-22.27c1.69-.97,3.8.24,3.8,2.19Z"/><polygon class="cls-1" points="666.42 159.02 666.42 179.44 666.4 179.43 666.4 159.02 666.42 159.02"/><polygon class="cls-1" points="0 104.13 0 128.75 55.7 128.75 55.7 255.26 83.33 255.26 83.33 128.75 139.03 128.75 139.03 104.13 0 104.13 0 104.13"/><polygon class="cls-1" points="271.16 163.94 183.94 163.94 183.94 104.13 156.31 104.13 156.31 255.26 183.94 255.26 183.94 188.55 271.16 188.55 271.16 255.26 298.8 255.26 298.8 104.13 271.16 104.13 271.16 163.94 271.16 163.94"/><polygon class="cls-1" points="354.07 187.47 441.29 187.47 441.29 166.1 354.07 166.1 354.07 127.24 449.92 127.24 449.92 104.13 326.43 104.13 326.43 255.26 452.08 255.26 452.08 232.16 354.07 232.16 354.07 187.47 354.07 187.47"/><polygon class="cls-1" points="918.85 255.25 946.91 255.25 946.91 104.13 918.85 104.13 918.85 255.25 918.85 255.25"/><path class="cls-1" d="M1078.61,196.98c25.04-.21,35.19-10.57,35.19-35.87v-21.15c0-25.67-10.57-35.83-35.83-35.83h-102.36v151.13h27.66v-56.55h46.61l39.51,56.55h30.88l-41.66-58.29ZM1003.28,177.94v-52.66h64.55c14,0,18.36,4.1,18.36,18.15v16.41c0,14.04-4.36,18.1-18.36,18.1h-64.55Z"/><path class="cls-1" d="M1243.1,196.98c25.04-.21,35.19-10.57,35.19-35.87v-21.15c0-25.67-10.57-35.83-35.83-35.83h-102.32v151.13h27.62v-56.55h46.61l39.55,56.55h30.83l-41.66-58.29ZM1167.77,177.94v-52.66h64.55c14.04,0,18.36,4.1,18.36,18.15v16.41c0,14.04-4.31,18.1-18.36,18.1h-64.55Z"/><path class="cls-1" d="M1411.53,104.13h-68.69c-27.62,0-40.14,12.52-40.14,40.14v70.81c0,27.66,12.52,40.18,40.14,40.18h68.69c27.62,0,40.14-12.52,40.14-40.18v-70.81c0-27.62-12.52-40.14-40.14-40.14ZM1424.05,209.92c0,15.78-5.84,21.57-21.61,21.57h-50.5c-15.78,0-21.61-5.37-21.61-21.57v-60.44c0-16.2,5.84-21.61,21.61-21.61h50.5c15.78,0,21.61,5.84,21.61,21.61v60.44Z"/><path class="cls-1" d="M1580.34,196.98c25.04-.21,35.19-10.57,35.19-35.87v-21.15c0-25.67-10.57-35.83-35.83-35.83h-102.36v151.13h27.66v-56.55h46.61l39.51,56.55h30.88l-41.66-58.29ZM1505.01,177.94v-52.66h64.55c14.04,0,18.36,4.1,18.36,18.15v16.41c0,14.04-4.31,18.1-18.36,18.1h-64.55Z"/><text/></g></svg>